{"title":"Arthur 3 The War of the Two Worlds 2010 DvDRip x264 Feel-Free","uid":6103944,"size":1050464688,"categoryP":"video","categoryS":"movies","magnet":"?xt=urn:btih:dbc395129896f2cc0a0b5396e96c8c717dc980f6&amp;dn=Arthur+3+The+War+of+the+Two+Worlds+2010+DvDRip+x264+Feel-Free&amp;tr=udp%3A%2F%2Ftracker.openbittorrent.com%3A80&amp;tr=udp%3A%2F%2Fopen.demonii.com%3A1337&amp;tr=udp%3A%2F%2Ftracker.coppersurfer.tk%3A6969&amp;tr=udp%3A%2F%2Fexodus.desync.com%3A6969","seeders":0,"leechers":0,"uploader":"SaM","files":9,"time":1295089200,"description":"Genre:Adventure | Family | Fantasy \nLanguage:English\nIMDb:http://www.imdb.com/title/tt0940656/\nSource:DVD\n\nFormat                           : Matroska\nFile size                        : 1 000 MiB\nDuration                         : 1h 37mn\nOverall bit rate                 : 1 441 Kbps\n\n\nVideo\nFormat settings, CABAC           : Yes\nFormat settings, ReFrames        : 4 frames\nCodec ID                         : V_MPEG4/ISO/AVC\nDuration                         : 1h 37mn\nBit rate                         : 1 000 Kbps\nWidth                            : 720 pixels\nHeight                           : 304 pixels\nDisplay aspect ratio             : 2.35:1\nFrame rate mode                  : Variable\nFrame rate                       : 25.000 fps\nColor space                      : YUV\nChroma subsampling               : 4:2:0\nBit depth                        : 8 bits\nScan type                        : Progressive\nBits/(Pixel*Frame)               : 0.183\nStream size                      : 669 MiB (67%)\nWriting library                  : x264 \n\n\nAudio\nID                               : 2\nFormat                           : AC-3\nFormat/Info                      : Audio Coding 3\nMode extension                   : CM (complete main)\nCodec ID                         : A_AC3\nDuration                         : 1h 37mn\nBit rate mode                    : Constant\nBit rate                         : 448 Kbps\nChannel(s)                       : 6 channels\nChannel positions                : Front: L C R, Side: L R, LFE\nSampling rate                    : 48.0 KHz\nBit depth                        : 16 bits\nVideo delay                      : -1mn 5s\nStream size                      : 311 MiB (31%)\nLanguage                         : English\n\n    \nPlot:\n  With Maltazard now 7 feet tall and Arthur still 2 inches small, our hero must find a way to grow back to his normal size ans stop the Evil M once and for all, with the help of Selenia and Betameche.\n\nTRAILER:\n\nScreens:-\n &lt;a href=&quot;\nhttp://shareimage.org/images/z93fotehn64qm7s7fhnq.png&quot; rel=&quot;nofollow&quot; target=&quot;_NEW&quot;&gt;\nhttp://shareimage.org/images/z93fotehn64qm7s7fhnq.png&lt;/a&gt;\n &lt;a href=&quot;\nhttp://shareimage.org/images/5zbbi5i094q2q1t9xe9.png&quot; rel=&quot;nofollow&quot; target=&quot;_NEW&quot;&gt;\nhttp://shareimage.org/images/5zbbi5i094q2q1t9xe9.png&lt;/a&gt;\n &lt;a href=&quot;\nhttp://shareimage.org/images/73bz6iicdmrx49qgdtee.png&quot; rel=&quot;nofollow&quot; target=&quot;_NEW&quot;&gt;\nhttp://shareimage.org/images/73bz6iicdmrx49qgdtee.png&lt;/a&gt;\n &lt;a href=&quot;\nhttp://shareimage.org/images/ybtrgplvgiafurcehdob.png&quot; rel=&quot;nofollow&quot; target=&quot;_NEW&quot;&gt;\nhttp://shareimage.org/images/ybtrgplvgiafurcehdob.png&lt;/a&gt;\n &lt;a href=&quot;\nhttp://shareimage.org/images/iyzpu0jyrkka1n14bcyh.png&quot; rel=&quot;nofollow&quot; target=&quot;_NEW&quot;&gt;\nhttp://shareimage.org/images/iyzpu0jyrkka1n14bcyh.png&lt;/a&gt;\n\nGreets:\n\nINK,CRYS,IMAGINE,LKRG,FXG,3Li,FLAWL3SS,TA,ViSiON,LU,TheFalcon007,PrisM,Noir,WBZ,LAP,Rx,Kingdom,SAFCuk009+Fabreezy,HDLiTE,TWiZTED,ExtraTorrentRG.ELEKTRI4KA,MAGNAT,CM8\n                And to all the other p2p grps past and present \n \n\n\n\nMake sure its a real Feel-Free release @ extratorrent","torrent":{"xt":"urn:btih:dbc395129896f2cc0a0b5396e96c8c717dc980f6","amp;dn":"Arthur+3+The+War+of+the+Two+Worlds+2010+DvDRip+x264+Feel-Free","amp;tr":["udp%3A%2F%2Ftracker.openbittorrent.com%3A80","udp%3A%2F%2Fopen.demonii.com%3A1337","udp%3A%2F%2Ftracker.coppersurfer.tk%3A6969","udp%3A%2F%2Fexodus.desync.com%3A6969"],"infoHash":"dbc395129896f2cc0a0b5396e96c8c717dc980f6","infoHashBuffer":{"type":"Buffer","data":[219,195,149,18,152,150,242,204,10,11,83,150,233,108,140,113,125,201,128,246]},"announce":[],"urlList":[]}}